<?xml version="1.0" standalone="no"?>
<!DOCTYPE svg PUBLIC "-//W3C//DTD SVG 20010904//EN"
 "http://www.w3.org/TR/2001/REC-SVG-20010904/DTD/svg10.dtd">
<svg version="1.0" xmlns="http://www.w3.org/2000/svg"
 width="455.000000pt" height="455.000000pt" viewBox="0 0 455.000000 455.000000"
 preserveAspectRatio="xMidYMid meet">
<metadata>
Created by potrace 1.11, written by Peter Selinger 2001-2013
</metadata>
<g transform="translate(0.000000,455.000000) scale(0.100000,-0.100000)"
fill="#000000" stroke="none">
<path d="M2125 4470 c-163 -19 -358 -68 -545 -137 -649 -241 -1160 -807 -1364
-1513 -152 -522 -123 -1072 77 -1490 497 -1035 1634 -1517 2707 -1148 293 101
706 350 848 513 50 56 37 136 -28 170 -63 32 -83 24 -225 -94 -295 -245 -652
-405 -1040 -467 -144 -23 -419 -23 -565 0 -651 101 -1198 512 -1490 1117 -108
226 -153 442 -153 734 0 342 69 634 222 950 253 519 659 879 1185 1050 191 62
321 86 502 92 182 7 313 -7 489 -51 328 -83 644 -261 898 -505 131 -127 211
-222 300 -356 70 -107 165 -299 202 -410 71 -210 108 -485 86 -640 -47 -340
-338 -695 -581 -713 -169 -12 -265 74 -420 375 -99 194 -161 250 -266 241
-112 -9 -185 -92 -315 -355 -49 -100 -94 -185 -99 -188 -11 -7 -42 92 -66 208
l-17 87 50 58 c196 228 319 459 368 692 19 92 19 259 0 333 -44 169 -164 286
-313 304 -37 4 -60 0 -98 -16 -58 -26 -85 -50 -124 -111 -108 -168 -163 -609
-130 -1039 12 -158 24 -136 -135 -264 -183 -148 -460 -311 -594 -351 -123 -36
-222 -9 -273 75 -98 159 -66 466 62 613 36 41 88 61 134 52 49 -9 143 -74 206
-142 64 -70 85 -83 125 -84 69 0 124 66 111 134 -9 47 -126 171 -220 234 -98
65 -166 86 -269 80 -69 -3 -92 -9 -145 -38 -220 -117 -344 -490 -266 -799 65
-256 262 -400 498 -363 183 28 469 177 739 385 42 33 79 58 81 56 2 -2 9 -26
15 -54 33 -134 106 -256 174 -291 43 -23 115 -21 164 4 69 36 116 102 217 305
103 207 121 236 135 221 5 -5 41 -70 81 -144 39 -74 91 -162 115 -195 237
-332 613 -338 936 -16 125 126 220 271 283 436 47 123 66 233 66 381 0 661
-382 1325 -992 1725 -253 165 -540 279 -828 328 -143 25 -392 35 -515 21z
m471 -1389 c89 -55 107 -239 42 -441 -25 -79 -115 -258 -163 -325 l-35 -50 0
173 c0 189 11 317 40 459 18 90 61 203 77 203 4 0 22 -9 39 -19z"/>
</g>
</svg>
